Stretch Light Narrow Cy Sc vv(14.4-0.0)-(84.5-100.0)-0.0-0.0-(0.0-0.0).ufo
<glyph name="a-cy.sc" format="1">
  <advance width="1134"/>
  <outline>
    <contour>
      <point x="88" y="98" type="line"/>
      <point x="-14" y="80" type="line"/>
      <point x="-14" y="0" type="line"/>
      <point x="365" y="0" type="line"/>
      <point x="365" y="80" type="line"/>
      <point x="224" y="98" type="line"/>
      <point x="304" y="364" type="line"/>
      <point x="786" y="364" type="line"/>
      <point x="866" y="96" type="line"/>
      <point x="728" y="80" type="line"/>
      <point x="728" y="0" type="line"/>
      <point x="1148" y="0" type="line"/>
      <point x="1148" y="80" type="line"/>
      <point x="1045" y="96" type="line"/>
      <point x="651" y="1304" type="line"/>
      <point x="487" y="1304" type="line"/>
    </contour>
    <contour>
      <point x="757" y="460" type="line"/>
      <point x="333" y="460" type="line"/>
      <point x="505" y="1026" type="line"/>
      <point x="546" y="1190" type="line"/>
      <point x="585" y="1030" type="line"/>
    </contour>
    <contour>
      <point x="552" y="0" type="move" name="bottom"/>
    </contour>
    <contour>
      <point x="528" y="-144" type="move" name="mark0"/>
    </contour>
    <contour>
      <point x="1013" y="18" type="move" name="ogonek"/>
    </contour>
    <contour>
      <point x="562" y="1272" type="move" name="top"/>
    </contour>
  </outline>
</glyph>
<glyph name="aie-cy.sc" format="1">
  <advance width="1498"/>
  <outline>
    <contour>
      <point x="654" y="96" type="line"/>
      <point x="514" y="80" type="line"/>
      <point x="514" y="0" type="line"/>
      <point x="1412" y="0" type="line"/>
      <point x="1473" y="302" type="line"/>
      <point x="1379" y="328" type="line"/>
      <point x="1283" y="108" type="line"/>
      <point x="815" y="90" type="line"/>
      <point x="815" y="620" type="line"/>
      <point x="1090" y="616" type="line"/>
      <point x="1112" y="466" type="line"/>
      <point x="1199" y="466" type="line"/>
      <point x="1199" y="858" type="line"/>
      <point x="1111" y="858" type="line"/>
      <point x="1090" y="714" type="line"/>
      <point x="815" y="710" type="line"/>
      <point x="815" y="1210" type="line"/>
      <point x="1223" y="1200" type="line"/>
      <point x="1274" y="1024" type="line"/>
      <point x="1362" y="1024" type="line"/>
      <point x="1334" y="1292" type="line"/>
      <point x="212" y="1292" type="line"/>
      <point x="212" y="1214" type="line"/>
      <point x="430" y="1194" type="line"/>
      <point x="-22" y="96" type="line"/>
      <point x="-140" y="80" type="line"/>
      <point x="-140" y="0" type="line"/>
      <point x="248" y="0" type="line"/>
      <point x="248" y="80" type="line"/>
      <point x="123" y="96" type="line"/>
      <point x="230" y="378" type="line"/>
      <point x="654" y="378" type="line"/>
    </contour>
    <contour>
      <point x="654" y="476" type="line"/>
      <point x="267" y="476" type="line"/>
      <point x="457" y="976" type="line"/>
      <point x="545" y="1202" type="line"/>
      <point x="654" y="1202" type="line"/>
    </contour>
    <contour>
      <point x="750" y="0" type="move" name="bottom"/>
    </contour>
    <contour>
      <point x="715" y="-144" type="move" name="mark0"/>
    </contour>
    <contour>
      <point x="750" y="1272" type="move" name="top"/>
    </contour>
  </outline>
</glyph>
<glyph name="be-cy.sc" format="1">
  <advance width="1088"/>
  <outline>
    <contour>
      <point x="408" y="764" type="curve"/>
      <point x="408" y="1208" type="line"/>
      <point x="812" y="1196" type="line"/>
      <point x="862" y="972" type="line"/>
      <point x="969" y="972" type="line"/>
      <point x="952" y="1292" type="line"/>
      <point x="83" y="1292" type="line"/>
      <point x="83" y="1210" type="line"/>
      <point x="248" y="1192" type="line"/>
      <point x="248" y="96" type="line"/>
      <point x="82" y="80" type="line"/>
      <point x="82" y="0" type="line"/>
      <point x="334" y="0" type="line" smooth="yes"/>
      <point x="401" y="0"/>
      <point x="564" y="-14"/>
      <point x="602" y="-14" type="curve" smooth="yes"/>
      <point x="856" y="-14"/>
      <point x="1033" y="130"/>
      <point x="1033" y="406" type="curve" smooth="yes"/>
      <point x="1033" y="644"/>
      <point x="893" y="782"/>
      <point x="620" y="782" type="curve" smooth="yes"/>
      <point x="551" y="782"/>
      <point x="445" y="772"/>
    </contour>
    <contour>
      <point x="408" y="92" type="curve"/>
      <point x="408" y="672" type="line"/>
      <point x="437" y="678"/>
      <point x="514" y="682"/>
      <point x="576" y="682" type="curve" smooth="yes"/>
      <point x="756" y="682"/>
      <point x="863" y="594"/>
      <point x="863" y="394" type="curve" smooth="yes"/>
      <point x="863" y="186"/>
      <point x="760" y="76"/>
      <point x="574" y="76" type="curve" smooth="yes"/>
      <point x="481" y="76"/>
      <point x="450" y="86"/>
    </contour>
    <contour>
      <point x="581" y="-144" type="move" name="mark0"/>
    </contour>
  </outline>
</glyph>
<glyph name="cheabkhasian-cy.sc" format="1">
  <advance width="1281"/>
  <outline>
    <contour>
      <point x="1183" y="46" type="curve"/>
      <point x="1189" y="302" type="line"/>
      <point x="1082" y="304" type="line"/>
      <point x="1050" y="162" type="line"/>
      <point x="1007" y="116"/>
      <point x="933" y="72"/>
      <point x="789" y="72" type="curve" smooth="yes"/>
      <point x="561" y="72"/>
      <point x="438" y="330"/>
      <point x="436" y="624" type="curve"/>
      <point x="1209" y="622" type="line"/>
      <point x="1216" y="658"/>
      <point x="1218" y="716"/>
      <point x="1218" y="794" type="curve" smooth="yes"/>
      <point x="1217" y="1124"/>
      <point x="1042" y="1306"/>
      <point x="799" y="1306" type="curve" smooth="yes"/>
      <point x="523" y="1306"/>
      <point x="303" y="1072"/>
      <point x="276" y="712" type="curve"/>
      <point x="161" y="714"/>
      <point x="132" y="768"/>
      <point x="132" y="816" type="curve" smooth="yes"/>
      <point x="132" y="848"/>
      <point x="155" y="916"/>
      <point x="167" y="932" type="curve"/>
      <point x="50" y="954" type="line"/>
      <point x="32" y="942"/>
      <point x="0" y="866"/>
      <point x="0" y="810" type="curve" smooth="yes"/>
      <point x="0" y="682"/>
      <point x="126" y="622"/>
      <point x="273" y="620" type="curve"/>
      <point x="276" y="236"/>
      <point x="469" y="-20"/>
      <point x="761" y="-20" type="curve" smooth="yes"/>
      <point x="989" y="-20"/>
      <point x="1092" y="44"/>
    </contour>
    <contour>
      <point x="1047" y="712" type="curve"/>
      <point x="434" y="712" type="line"/>
      <point x="444" y="1074"/>
      <point x="597" y="1210"/>
      <point x="765" y="1210" type="curve" smooth="yes"/>
      <point x="971" y="1210"/>
      <point x="1052" y="994"/>
      <point x="1052" y="804" type="curve" smooth="yes"/>
      <point x="1053" y="772"/>
      <point x="1051" y="742"/>
    </contour>
  </outline>
</glyph>
<glyph name="chekhakassian-cy.sc" format="1">
  <advance width="1123"/>
  <outline>
    <contour>
      <point x="718" y="0" type="curve"/>
      <point x="1047" y="0" type="line"/>
      <point x="1047" y="80" type="line"/>
      <point x="902" y="98" type="line"/>
      <point x="902" y="1192" type="line"/>
      <point x="1046" y="1210" type="line"/>
      <point x="1046" y="1292" type="line"/>
      <point x="595" y="1292" type="line"/>
      <point x="595" y="1210" type="line"/>
      <point x="742" y="1192" type="line"/>
      <point x="742" y="666" type="line"/>
      <point x="696" y="638"/>
      <point x="584" y="612"/>
      <point x="499" y="612" type="curve" smooth="yes"/>
      <point x="295" y="612"/>
      <point x="272" y="668"/>
      <point x="272" y="948" type="curve" smooth="yes"/>
      <point x="272" y="1190" type="line"/>
      <point x="413" y="1210" type="line"/>
      <point x="413" y="1292" type="line"/>
      <point x="12" y="1292" type="line"/>
      <point x="12" y="1210" type="line"/>
      <point x="111" y="1190" type="line"/>
      <point x="111" y="896" type="line" smooth="yes"/>
      <point x="111" y="636"/>
      <point x="177" y="500"/>
      <point x="425" y="500" type="curve" smooth="yes"/>
      <point x="523" y="500"/>
      <point x="661" y="526"/>
      <point x="742" y="574" type="curve"/>
      <point x="742" y="100" type="line"/>
      <point x="569" y="100" type="line"/>
      <point x="567" y="70"/>
      <point x="549" y="-308"/>
      <point x="549" y="-320" type="curve"/>
      <point x="652" y="-320" type="line"/>
      <point x="660" y="-280"/>
      <point x="712" y="-12"/>
    </contour>
    <contour>
      <point x="538" y="-144" type="move" name="mark0"/>
    </contour>
  </outline>
</glyph>
<glyph name="cheverticalstroke-cy.sc" format="1">
  <advance width="1129"/>
  <outline>
    <contour>
      <point x="755" y="570" type="curve"/>
      <point x="755" y="98" type="line"/>
      <point x="584" y="82" type="line"/>
      <point x="584" y="0" type="line"/>
      <point x="1061" y="0" type="line"/>
      <point x="1061" y="80" type="line"/>
      <point x="917" y="98" type="line"/>
      <point x="917" y="1192" type="line"/>
      <point x="1061" y="1210" type="line"/>
      <point x="1061" y="1292" type="line"/>
      <point x="608" y="1292" type="line"/>
      <point x="608" y="1212" type="line"/>
      <point x="755" y="1192" type="line"/>
      <point x="755" y="666" type="line"/>
      <point x="718" y="644"/>
      <point x="638" y="622"/>
      <point x="560" y="614" type="curve"/>
      <point x="560" y="878" type="line"/>
      <point x="475" y="878" type="line"/>
      <point x="475" y="612" type="line"/>
      <point x="302" y="614"/>
      <point x="273" y="672"/>
      <point x="273" y="948" type="curve" smooth="yes"/>
      <point x="273" y="1190" type="line"/>
      <point x="418" y="1212" type="line"/>
      <point x="418" y="1292" type="line"/>
      <point x="12" y="1292" type="line"/>
      <point x="12" y="1212" type="line"/>
      <point x="115" y="1190" type="line"/>
      <point x="115" y="896" type="line" smooth="yes"/>
      <point x="115" y="628"/>
      <point x="187" y="500"/>
      <point x="431" y="500" type="curve" smooth="yes"/>
      <point x="444" y="500"/>
      <point x="459" y="500"/>
      <point x="475" y="502" type="curve"/>
      <point x="475" y="308" type="line"/>
      <point x="560" y="308" type="line"/>
      <point x="560" y="508" type="line"/>
      <point x="632" y="520"/>
      <point x="700" y="538"/>
    </contour>
    <contour>
      <point x="550" y="-144" type="move" name="mark0"/>
    </contour>
  </outline>
</glyph>
<glyph name="de-cy.loclBGR.sc" format="1">
  <advance width="1234"/>
  <outline>
    <contour>
      <point x="1203" y="98" type="curve"/>
      <point x="1074" y="98" type="line"/>
      <point x="727" y="1304" type="line"/>
      <point x="562" y="1304" type="line"/>
      <point x="168" y="98" type="line"/>
      <point x="47" y="98" type="line"/>
      <point x="42" y="66"/>
      <point x="28" y="-306"/>
      <point x="28" y="-320" type="curve"/>
      <point x="129" y="-320" type="line"/>
      <point x="157" y="-160"/>
      <point x="191" y="-8"/>
      <point x="196" y="0" type="curve"/>
      <point x="1039" y="0" type="line"/>
      <point x="1045" y="-18"/>
      <point x="1063" y="-278"/>
      <point x="1064" y="-320" type="curve"/>
      <point x="1165" y="-320" type="line"/>
      <point x="1167" y="-314"/>
      <point x="1203" y="82"/>
    </contour>
    <contour>
      <point x="620" y="1190" type="line"/>
      <point x="660" y="1030" type="line"/>
      <point x="895" y="98" type="line"/>
      <point x="304" y="98" type="line"/>
      <point x="581" y="1026" type="line"/>
    </contour>
  </outline>
</glyph>
<glyph name="de-cy.sc" format="1">
  <advance width="1190"/>
  <outline>
    <contour>
      <point x="1110" y="98" type="curve"/>
      <point x="964" y="98" type="line"/>
      <point x="964" y="1192" type="line"/>
      <point x="1119" y="1210" type="line"/>
      <point x="1119" y="1292" type="line"/>
      <point x="211" y="1292" type="line"/>
      <point x="211" y="1210" type="line"/>
      <point x="377" y="1192" type="line"/>
      <point x="377" y="1078" type="line" smooth="yes"/>
      <point x="377" y="466"/>
      <point x="222" y="168"/>
      <point x="169" y="98" type="curve"/>
      <point x="50" y="98" type="line"/>
      <point x="48" y="70"/>
      <point x="32" y="-308"/>
      <point x="32" y="-320" type="curve"/>
      <point x="133" y="-320" type="line"/>
      <point x="141" y="-276"/>
      <point x="193" y="-6"/>
      <point x="200" y="0" type="curve"/>
      <point x="947" y="0" type="line"/>
      <point x="953" y="-14"/>
      <point x="971" y="-288"/>
      <point x="972" y="-320" type="curve"/>
      <point x="1073" y="-320" type="line"/>
      <point x="1075" y="-312"/>
      <point x="1110" y="86"/>
    </contour>
    <contour>
      <point x="475" y="1068" type="curve"/>
      <point x="475" y="1196" type="line"/>
      <point x="806" y="1196" type="line"/>
      <point x="804" y="98" type="line"/>
      <point x="304" y="98" type="line"/>
      <point x="353" y="180"/>
      <point x="476" y="522"/>
    </contour>
  </outline>
</glyph>
<glyph name="dzeabkhasian-cy.sc" format="1">
  <advance width="1039"/>
  <outline>
    <contour>
      <point x="523" y="736" type="curve"/>
      <point x="913" y="1212" type="line"/>
      <point x="913" y="1292" type="line"/>
      <point x="147" y="1292" type="line"/>
      <point x="165" y="992" type="line"/>
      <point x="264" y="992" type="line"/>
      <point x="292" y="1174" type="line"/>
      <point x="728" y="1180" type="line"/>
      <point x="715" y="1164"/>
      <point x="396" y="756"/>
      <point x="374" y="728" type="curve"/>
      <point x="397" y="664" type="line"/>
      <point x="419" y="664"/>
      <point x="443" y="664"/>
      <point x="464" y="664" type="curve"/>
      <point x="705" y="654"/>
      <point x="777" y="554"/>
      <point x="777" y="382" type="curve" smooth="yes"/>
      <point x="777" y="224"/>
      <point x="672" y="86"/>
      <point x="462" y="86" type="curve" smooth="yes"/>
      <point x="339" y="86"/>
      <point x="295" y="118"/>
      <point x="281" y="126" type="curve"/>
      <point x="243" y="336" type="line"/>
      <point x="150" y="336" type="line"/>
      <point x="119" y="52" type="line"/>
      <point x="163" y="38"/>
      <point x="274" y="-12"/>
      <point x="449" y="-12" type="curve" smooth="yes"/>
      <point x="764" y="-12"/>
      <point x="951" y="156"/>
      <point x="951" y="408" type="curve" smooth="yes"/>
      <point x="951" y="628"/>
      <point x="839" y="742"/>
      <point x="616" y="742" type="curve" smooth="yes"/>
      <point x="583" y="742"/>
      <point x="554" y="740"/>
    </contour>
  </outline>
</glyph>
<glyph name="edieresis-cy.sc" format="1">
  <advance width="1121"/>
  <outline>
    <contour>
      <point x="763" y="1486" type="curve"/>
      <point x="840" y="1486"/>
      <point x="874" y="1546"/>
      <point x="874" y="1616" type="curve" smooth="yes"/>
      <point x="874" y="1674"/>
      <point x="841" y="1732"/>
      <point x="778" y="1732" type="curve" smooth="yes"/>
      <point x="707" y="1732"/>
      <point x="672" y="1666"/>
      <point x="672" y="1600" type="curve" smooth="yes"/>
      <point x="672" y="1536"/>
      <point x="707" y="1486"/>
    </contour>
    <contour>
      <point x="388" y="1486" type="curve" smooth="yes"/>
      <point x="464" y="1486"/>
      <point x="498" y="1546"/>
      <point x="498" y="1616" type="curve" smooth="yes"/>
      <point x="498" y="1674"/>
      <point x="465" y="1732"/>
      <point x="402" y="1732" type="curve"/>
      <point x="330" y="1732"/>
      <point x="297" y="1666"/>
      <point x="297" y="1600" type="curve" smooth="yes"/>
      <point x="297" y="1536"/>
      <point x="330" y="1486"/>
    </contour>
    <contour>
      <point x="142" y="1240" type="curve"/>
      <point x="139" y="970" type="line"/>
      <point x="249" y="970" type="line"/>
      <point x="291" y="1132" type="line"/>
      <point x="329" y="1168"/>
      <point x="381" y="1216"/>
      <point x="509" y="1216" type="curve" smooth="yes"/>
      <point x="742" y="1216"/>
      <point x="852" y="980"/>
      <point x="872" y="714" type="curve"/>
      <point x="337" y="730" type="line"/>
      <point x="337" y="596" type="line"/>
      <point x="876" y="610" type="line"/>
      <point x="872" y="270"/>
      <point x="724" y="74"/>
      <point x="518" y="74" type="curve" smooth="yes"/>
      <point x="388" y="74"/>
      <point x="326" y="118"/>
      <point x="290" y="148" type="curve"/>
      <point x="224" y="312" type="line"/>
      <point x="120" y="292" type="line"/>
      <point x="152" y="46" type="line"/>
      <point x="237" y="46"/>
      <point x="319" y="-20"/>
      <point x="494" y="-20" type="curve" smooth="yes"/>
      <point x="833" y="-20"/>
      <point x="1063" y="246"/>
      <point x="1063" y="636" type="curve" smooth="yes"/>
      <point x="1063" y="1032"/>
      <point x="867" y="1306"/>
      <point x="519" y="1306" type="curve" smooth="yes"/>
      <point x="309" y="1306"/>
      <point x="231" y="1244"/>
    </contour>
  </outline>
</glyph>
<glyph name="ef-cy.loclBGR.sc" format="1">
  <advance width="1336"/>
  <outline>
    <contour>
      <point x="745" y="1190" type="curve"/>
      <point x="745" y="1276" type="line"/>
      <point x="900" y="1296" type="line"/>
      <point x="900" y="1378" type="line"/>
      <point x="434" y="1378" type="line"/>
      <point x="434" y="1296" type="line"/>
      <point x="591" y="1276" type="line"/>
      <point x="591" y="1188" type="line"/>
      <point x="245" y="1166"/>
      <point x="49" y="894"/>
      <point x="49" y="642" type="curve" smooth="yes"/>
      <point x="49" y="410"/>
      <point x="142" y="100"/>
      <point x="591" y="82" type="curve"/>
      <point x="591" y="-16" type="line"/>
      <point x="435" y="-38" type="line"/>
      <point x="435" y="-120" type="line"/>
      <point x="902" y="-120" type="line"/>
      <point x="902" y="-40" type="line"/>
      <point x="745" y="-18" type="line"/>
      <point x="745" y="82" type="line"/>
      <point x="1084" y="108"/>
      <point x="1287" y="392"/>
      <point x="1287" y="648" type="curve" smooth="yes"/>
      <point x="1287" y="880"/>
      <point x="1198" y="1174"/>
    </contour>
    <contour>
      <point x="591" y="1114" type="curve"/>
      <point x="591" y="158" type="line"/>
      <point x="281" y="184"/>
      <point x="227" y="470"/>
      <point x="227" y="652" type="curve" smooth="yes"/>
      <point x="227" y="844"/>
      <point x="295" y="1092"/>
    </contour>
    <contour>
      <point x="745" y="158" type="curve"/>
      <point x="745" y="1116" type="line"/>
      <point x="1054" y="1092"/>
      <point x="1107" y="832"/>
      <point x="1107" y="646" type="curve" smooth="yes"/>
      <point x="1107" y="450"/>
      <point x="1043" y="184"/>
    </contour>
  </outline>
</glyph>
<glyph name="ef-cy.sc" format="1">
  <advance width="1236"/>
  <outline>
    <contour>
      <point x="694" y="1102" type="curve"/>
      <point x="694" y="1226" type="line"/>
      <point x="850" y="1246" type="line"/>
      <point x="850" y="1328" type="line"/>
      <point x="385" y="1328" type="line"/>
      <point x="385" y="1246" type="line"/>
      <point x="542" y="1226" type="line"/>
      <point x="542" y="1102" type="line"/>
      <point x="213" y="1082"/>
      <point x="33" y="900"/>
      <point x="33" y="662" type="curve" smooth="yes"/>
      <point x="33" y="444"/>
      <point x="119" y="216"/>
      <point x="542" y="202" type="curve"/>
      <point x="542" y="68" type="line"/>
      <point x="385" y="46" type="line"/>
      <point x="385" y="-36" type="line"/>
      <point x="852" y="-36" type="line"/>
      <point x="852" y="44" type="line"/>
      <point x="694" y="66" type="line"/>
      <point x="694" y="204" type="line"/>
      <point x="1014" y="224"/>
      <point x="1203" y="418"/>
      <point x="1203" y="658" type="curve" smooth="yes"/>
      <point x="1203" y="884"/>
      <point x="1114" y="1090"/>
    </contour>
    <contour>
      <point x="542" y="1034" type="curve"/>
      <point x="542" y="276" type="line"/>
      <point x="265" y="298"/>
      <point x="211" y="494"/>
      <point x="211" y="672" type="curve" smooth="yes"/>
      <point x="211" y="850"/>
      <point x="271" y="1016"/>
    </contour>
    <contour>
      <point x="694" y="276" type="curve"/>
      <point x="694" y="1032" type="line"/>
      <point x="978" y="1010"/>
      <point x="1023" y="826"/>
      <point x="1023" y="656" type="curve" smooth="yes"/>
      <point x="1023" y="460"/>
      <point x="957" y="296"/>
    </contour>
    <contour>
      <point x="618" y="-144" type="move" name="mark0"/>
    </contour>
  </outline>
</glyph>
<glyph name="el-cy.loclBGR.sc" format="1">
  <advance width="1232"/>
  <outline>
    <contour>
      <point x="531" y="1304" type="line"/>
      <point x="135" y="98" type="line"/>
      <point x="34" y="80" type="line"/>
      <point x="34" y="0" type="line"/>
      <point x="412" y="0" type="line"/>
      <point x="412" y="80" type="line"/>
      <point x="271" y="98" type="line"/>
      <point x="550" y="1026" type="line"/>
      <point x="589" y="1190" type="line"/>
      <point x="629" y="1030" type="line"/>
      <point x="914" y="96" type="line"/>
      <point x="776" y="80" type="line"/>
      <point x="776" y="0" type="line"/>
      <point x="1195" y="0" type="line"/>
      <point x="1195" y="80" type="line"/>
      <point x="1093" y="96" type="line"/>
      <point x="695" y="1304" type="line"/>
    </contour>
  </outline>
</glyph>
<glyph name="el-cy.sc" format="1">
  <advance width="1199"/>
  <outline>
    <contour>
      <point x="481" y="1028" type="curve" smooth="yes"/>
      <point x="481" y="1192" type="line"/>
      <point x="815" y="1192" type="line"/>
      <point x="814" y="98" type="line"/>
      <point x="647" y="80" type="line"/>
      <point x="647" y="0" type="line"/>
      <point x="1135" y="0" type="line"/>
      <point x="1135" y="80" type="line"/>
      <point x="974" y="96" type="line"/>
      <point x="974" y="1192" type="line"/>
      <point x="1125" y="1210" type="line"/>
      <point x="1125" y="1292" type="line"/>
      <point x="200" y="1292" type="line"/>
      <point x="200" y="1210" type="line"/>
      <point x="384" y="1192" type="line"/>
      <point x="384" y="1044" type="line" smooth="yes"/>
      <point x="384" y="588"/>
      <point x="338" y="324"/>
      <point x="259" y="196" type="curve"/>
      <point x="233" y="150"/>
      <point x="205" y="130"/>
      <point x="163" y="130" type="curve" smooth="yes"/>
      <point x="100" y="130"/>
      <point x="64" y="134"/>
      <point x="42" y="138" type="curve"/>
      <point x="52" y="0" type="line"/>
      <point x="74" y="-4"/>
      <point x="116" y="-10"/>
      <point x="167" y="-10" type="curve" smooth="yes"/>
      <point x="244" y="-10"/>
      <point x="301" y="28"/>
      <point x="348" y="114" type="curve" smooth="yes"/>
      <point x="435" y="272"/>
      <point x="481" y="602"/>
    </contour>
    <contour>
      <point x="476" y="-144" type="move" name="mark0"/>
    </contour>
  </outline>
</glyph>
<glyph name="en-cy.loclBGR.sc" format="1">
  <advance width="1305"/>
  <outline>
    <contour>
      <point x="198" y="96" type="line"/>
      <point x="67" y="80" type="line"/>
      <point x="67" y="0" type="line"/>
      <point x="500" y="0" type="line"/>
      <point x="500" y="80" type="line"/>
      <point x="359" y="96" type="line"/>
      <point x="359" y="612" type="line"/>
      <point x="945" y="612" type="line"/>
      <point x="945" y="98" type="line"/>
      <point x="809" y="80" type="line"/>
      <point x="809" y="0" type="line"/>
      <point x="1238" y="0" type="line"/>
      <point x="1238" y="80" type="line"/>
      <point x="1107" y="96" type="line"/>
      <point x="1107" y="1192" type="line"/>
      <point x="1232" y="1210" type="line"/>
      <point x="1232" y="1292" type="line"/>
      <point x="811" y="1292" type="line"/>
      <point x="811" y="1210" type="line"/>
      <point x="945" y="1192" type="line"/>
      <point x="945" y="714" type="line"/>
      <point x="359" y="714" type="line"/>
      <point x="359" y="1192" type="line"/>
      <point x="498" y="1210" type="line"/>
      <point x="498" y="1292" type="line"/>
      <point x="68" y="1292" type="line"/>
      <point x="68" y="1210" type="line"/>
      <point x="198" y="1192" type="line"/>
    </contour>
  </outline>
</glyph>
<glyph name="en-cy.sc" format="1">
  <advance width="1349"/>
  <outline>
    <contour>
      <point x="220" y="96" type="line"/>
      <point x="89" y="80" type="line"/>
      <point x="89" y="0" type="line"/>
      <point x="522" y="0" type="line"/>
      <point x="522" y="80" type="line"/>
      <point x="382" y="96" type="line"/>
      <point x="382" y="612" type="line"/>
      <point x="967" y="612" type="line"/>
      <point x="967" y="98" type="line"/>
      <point x="831" y="80" type="line"/>
      <point x="831" y="0" type="line"/>
      <point x="1260" y="0" type="line"/>
      <point x="1260" y="80" type="line"/>
      <point x="1129" y="96" type="line"/>
      <point x="1129" y="1192" type="line"/>
      <point x="1254" y="1210" type="line"/>
      <point x="1254" y="1292" type="line"/>
      <point x="832" y="1292" type="line"/>
      <point x="832" y="1210" type="line"/>
      <point x="967" y="1192" type="line"/>
      <point x="967" y="714" type="line"/>
      <point x="382" y="714" type="line"/>
      <point x="382" y="1192" type="line"/>
      <point x="521" y="1210" type="line"/>
      <point x="521" y="1292" type="line"/>
      <point x="90" y="1292" type="line"/>
      <point x="90" y="1210" type="line"/>
      <point x="220" y="1192" type="line"/>
    </contour>
    <contour>
      <point x="675" y="0" type="move" name="bottom"/>
    </contour>
    <contour>
      <point x="1313" y="0" type="move" name="bottomright"/>
    </contour>
    <contour>
      <point x="686" y="1272" type="move" name="top"/>
    </contour>
  </outline>
</glyph>
<glyph name="enlefthook-cy.sc" format="1">
  <advance width="1331"/>
  <outline>
    <contour>
      <point x="402" y="478" type="curve" smooth="yes"/>
      <point x="402" y="612" type="line"/>
      <point x="971" y="612" type="line"/>
      <point x="971" y="98" type="line"/>
      <point x="835" y="80" type="line"/>
      <point x="835" y="0" type="line"/>
      <point x="1263" y="0" type="line"/>
      <point x="1263" y="80" type="line"/>
      <point x="1132" y="96" type="line"/>
      <point x="1132" y="1192" type="line"/>
      <point x="1257" y="1210" type="line"/>
      <point x="1257" y="1292" type="line"/>
      <point x="836" y="1292" type="line"/>
      <point x="836" y="1210" type="line"/>
      <point x="971" y="1192" type="line"/>
      <point x="971" y="714" type="line"/>
      <point x="402" y="714" type="line"/>
      <point x="402" y="1192" type="line"/>
      <point x="541" y="1210" type="line"/>
      <point x="541" y="1292" type="line"/>
      <point x="111" y="1292" type="line"/>
      <point x="111" y="1210" type="line"/>
      <point x="240" y="1192" type="line"/>
      <point x="240" y="424" type="line" smooth="yes"/>
      <point x="240" y="200"/>
      <point x="239" y="92"/>
      <point x="208" y="-16" type="curve" smooth="yes"/>
      <point x="173" y="-132"/>
      <point x="87" y="-210"/>
      <point x="-4" y="-238" type="curve"/>
      <point x="37" y="-306" type="line"/>
      <point x="194" y="-276"/>
      <point x="342" y="-164"/>
      <point x="385" y="34" type="curve"/>
      <point x="402" y="138"/>
      <point x="402" y="282"/>
    </contour>
  </outline>
</glyph>
<glyph name="entail-cy.sc" format="1">
  <advance width="1346"/>
  <outline>
    <contour>
      <point x="1288" y="0" type="curve"/>
      <point x="1288" y="96" type="line"/>
      <point x="1130" y="96" type="line"/>
      <point x="1130" y="1192" type="line"/>
      <point x="1261" y="1210" type="line"/>
      <point x="1261" y="1292" type="line"/>
      <point x="834" y="1292" type="line"/>
      <point x="834" y="1210" type="line"/>
      <point x="967" y="1192" type="line"/>
      <point x="967" y="714" type="line"/>
      <point x="382" y="714" type="line"/>
      <point x="382" y="1192" type="line"/>
      <point x="521" y="1210" type="line"/>
      <point x="521" y="1292" type="line"/>
      <point x="90" y="1292" type="line"/>
      <point x="90" y="1210" type="line"/>
      <point x="220" y="1192" type="line"/>
      <point x="220" y="96" type="line"/>
      <point x="85" y="80" type="line"/>
      <point x="85" y="0" type="line"/>
      <point x="522" y="0" type="line"/>
      <point x="522" y="80" type="line"/>
      <point x="382" y="98" type="line"/>
      <point x="382" y="612" type="line"/>
      <point x="967" y="612" type="line"/>
      <point x="967" y="98" type="line"/>
      <point x="832" y="80" type="line"/>
      <point x="832" y="0" type="line"/>
      <point x="1150" y="0" type="line"/>
      <point x="1125" y="-100"/>
      <point x="1097" y="-214"/>
      <point x="1069" y="-320" type="curve"/>
      <point x="1175" y="-320" type="line"/>
      <point x="1183" y="-310"/>
      <point x="1278" y="-18"/>
    </contour>
  </outline>
</glyph>
<glyph name="er-cy.sc" format="1">
  <advance width="1055"/>
  <outline>
    <contour>
      <point x="220" y="96" type="line"/>
      <point x="84" y="80" type="line"/>
      <point x="84" y="0" type="line"/>
      <point x="605" y="0" type="line"/>
      <point x="605" y="80" type="line"/>
      <point x="382" y="98" type="line"/>
      <point x="382" y="494" type="line"/>
      <point x="397" y="490"/>
      <point x="487" y="486"/>
      <point x="542" y="486" type="curve" smooth="yes"/>
      <point x="810" y="486"/>
      <point x="1010" y="652"/>
      <point x="1010" y="936" type="curve" smooth="yes"/>
      <point x="1010" y="1168"/>
      <point x="908" y="1304"/>
      <point x="583" y="1304" type="curve" smooth="yes"/>
      <point x="445" y="1304"/>
      <point x="402" y="1292"/>
      <point x="302" y="1292" type="curve" smooth="yes"/>
      <point x="93" y="1292" type="line"/>
      <point x="93" y="1210" type="line"/>
      <point x="220" y="1192" type="line"/>
    </contour>
    <contour>
      <point x="382" y="584" type="curve"/>
      <point x="382" y="1206" type="line"/>
      <point x="423" y="1206"/>
      <point x="470" y="1216"/>
      <point x="545" y="1216" type="curve" smooth="yes"/>
      <point x="743" y="1216"/>
      <point x="840" y="1140"/>
      <point x="840" y="934" type="curve" smooth="yes"/>
      <point x="840" y="660"/>
      <point x="697" y="576"/>
      <point x="544" y="576" type="curve" smooth="yes"/>
      <point x="476" y="576"/>
      <point x="413" y="578"/>
    </contour>
    <contour>
      <point x="501" y="0" type="move" name="bottom"/>
    </contour>
    <contour>
      <point x="540" y="-144" type="move" name="mark0"/>
    </contour>
    <contour>
      <point x="580" y="1272" type="move" name="top"/>
    </contour>
  </outline>
</glyph>
<glyph name="esdescender-cy.loclCHU.sc" format="1">
  <advance width="1068"/>
  <outline>
    <contour>
      <point x="615" y="-20" type="curve" smooth="yes"/>
      <point x="811" y="-20"/>
      <point x="873" y="42"/>
      <point x="963" y="46" type="curve"/>
      <point x="1002" y="292" type="line"/>
      <point x="906" y="304" type="line"/>
      <point x="840" y="134" type="line"/>
      <point x="800" y="98"/>
      <point x="747" y="70"/>
      <point x="621" y="70" type="curve" smooth="yes"/>
      <point x="362" y="70"/>
      <point x="243" y="346"/>
      <point x="243" y="666" type="curve" smooth="yes"/>
      <point x="243" y="1022"/>
      <point x="402" y="1218"/>
      <point x="611" y="1218" type="curve" smooth="yes"/>
      <point x="728" y="1218"/>
      <point x="807" y="1192"/>
      <point x="834" y="1166" type="curve"/>
      <point x="874" y="954" type="line"/>
      <point x="974" y="954" type="line"/>
      <point x="989" y="1254" type="line"/>
      <point x="922" y="1266"/>
      <point x="789" y="1306"/>
      <point x="640" y="1306" type="curve" smooth="yes"/>
      <point x="310" y="1306"/>
      <point x="58" y="1032"/>
      <point x="58" y="638" type="curve" smooth="yes"/>
      <point x="58" y="238"/>
      <point x="256" y="-20"/>
    </contour>
    <contour>
      <point x="608" y="-144" type="move" name="mark0"/>
    </contour>
  </outline>
</glyph>
<glyph name="esdescender-cy.sc" format="1">
  <advance width="1063"/>
  <outline>
    <contour>
      <point x="963" y="46" type="curve"/>
      <point x="1000" y="288" type="line"/>
      <point x="906" y="300" type="line"/>
      <point x="839" y="134" type="line"/>
      <point x="800" y="98"/>
      <point x="749" y="70"/>
      <point x="621" y="70" type="curve" smooth="yes"/>
      <point x="363" y="70"/>
      <point x="243" y="352"/>
      <point x="243" y="666" type="curve" smooth="yes"/>
      <point x="243" y="1022"/>
      <point x="403" y="1218"/>
      <point x="612" y="1218" type="curve" smooth="yes"/>
      <point x="729" y="1218"/>
      <point x="807" y="1192"/>
      <point x="834" y="1166" type="curve"/>
      <point x="874" y="954" type="line"/>
      <point x="976" y="954" type="line"/>
      <point x="990" y="1254" type="line"/>
      <point x="931" y="1266"/>
      <point x="786" y="1306"/>
      <point x="640" y="1306" type="curve" smooth="yes"/>
      <point x="311" y="1306"/>
      <point x="58" y="1042"/>
      <point x="58" y="650" type="curve" smooth="yes"/>
      <point x="58" y="290"/>
      <point x="217" y="28"/>
      <point x="527" y="-14" type="curve"/>
      <point x="533" y="-70"/>
      <point x="557" y="-302"/>
      <point x="557" y="-320" type="curve"/>
      <point x="665" y="-320" type="line"/>
      <point x="686" y="-30"/>
      <point x="683" y="-118"/>
      <point x="692" y="-14" type="curve"/>
      <point x="831" y="-4"/>
      <point x="886" y="42"/>
    </contour>
  </outline>
</glyph>
<glyph name="fita-cy.sc" format="1">
  <advance width="1177"/>
  <outline>
    <contour>
      <point x="578" y="-20" type="curve" smooth="yes"/>
      <point x="885" y="-14"/>
      <point x="1119" y="252"/>
      <point x="1119" y="660" type="curve" smooth="yes"/>
      <point x="1119" y="1050"/>
      <point x="944" y="1308"/>
      <point x="604" y="1308" type="curve" smooth="yes"/>
      <point x="296" y="1308"/>
      <point x="60" y="1048"/>
      <point x="60" y="638" type="curve" smooth="yes"/>
      <point x="60" y="248"/>
      <point x="239" y="-26"/>
    </contour>
    <contour>
      <point x="586" y="68" type="curve" smooth="yes"/>
      <point x="386" y="68"/>
      <point x="260" y="258"/>
      <point x="241" y="562" type="curve"/>
      <point x="277" y="596"/>
      <point x="336" y="660"/>
      <point x="413" y="660" type="curve" smooth="yes"/>
      <point x="500" y="660"/>
      <point x="607" y="546"/>
      <point x="733" y="546" type="curve" smooth="yes"/>
      <point x="824" y="546"/>
      <point x="892" y="600"/>
      <point x="936" y="656" type="curve"/>
      <point x="934" y="282"/>
      <point x="807" y="68"/>
    </contour>
    <contour>
      <point x="240" y="664" type="curve"/>
      <point x="244" y="1038"/>
      <point x="386" y="1220"/>
      <point x="591" y="1220" type="curve" smooth="yes"/>
      <point x="787" y="1220"/>
      <point x="910" y="1044"/>
      <point x="932" y="756" type="curve"/>
      <point x="898" y="724"/>
      <point x="838" y="660"/>
      <point x="761" y="660" type="curve" smooth="yes"/>
      <point x="666" y="660"/>
      <point x="564" y="774"/>
      <point x="439" y="774" type="curve" smooth="yes"/>
      <point x="353" y="774"/>
      <point x="288" y="724"/>
    </contour>
  </outline>
</glyph>
<glyph name="ghestroke-cy.loclBSH.sc" format="1">
  <advance width="1010"/>
  <outline>
    <contour>
      <point x="215" y="98" type="line"/>
      <point x="85" y="80" type="line"/>
      <point x="85" y="0" type="line"/>
      <point x="631" y="0" type="line"/>
      <point x="631" y="80" type="line"/>
      <point x="377" y="98" type="line"/>
      <point x="377" y="606" type="line"/>
      <point x="680" y="600" type="line"/>
      <point x="708" y="450" type="line"/>
      <point x="791" y="450" type="line"/>
      <point x="791" y="846" type="line"/>
      <point x="708" y="846" type="line"/>
      <point x="680" y="702" type="line"/>
      <point x="377" y="698" type="line"/>
      <point x="377" y="1208" type="line"/>
      <point x="805" y="1196" type="line"/>
      <point x="854" y="1002" type="line"/>
      <point x="955" y="1002" type="line"/>
      <point x="938" y="1292" type="line"/>
      <point x="75" y="1292" type="line"/>
      <point x="75" y="1210" type="line"/>
      <point x="215" y="1192" type="line"/>
    </contour>
    <contour>
      <point x="506" y="0" type="move" name="bottom"/>
    </contour>
    <contour>
      <point x="515" y="-144" type="move" name="mark0"/>
    </contour>
    <contour>
      <point x="552" y="1272" type="move" name="top"/>
    </contour>
  </outline>
</glyph>
<glyph name="ghestroke-cy.sc" format="1">
  <advance width="945"/>
  <outline>
    <contour>
      <point x="55" y="1292" type="line"/>
      <point x="55" y="1212" type="line"/>
      <point x="227" y="1190" type="line"/>
      <point x="227" y="668" type="line"/>
      <point x="73" y="668" type="line"/>
      <point x="73" y="578" type="line"/>
      <point x="227" y="578" type="line"/>
      <point x="227" y="98" type="line"/>
      <point x="49" y="80" type="line"/>
      <point x="49" y="0" type="line"/>
      <point x="677" y="0" type="line"/>
      <point x="677" y="80" type="line"/>
      <point x="392" y="98" type="line"/>
      <point x="392" y="578" type="line"/>
      <point x="692" y="578" type="line"/>
      <point x="692" y="668" type="line"/>
      <point x="392" y="668" type="line"/>
      <point x="392" y="1208" type="line"/>
      <point x="760" y="1196" type="line"/>
      <point x="804" y="844" type="line"/>
      <point x="908" y="844" type="line"/>
      <point x="898" y="1292" type="line"/>
    </contour>
  </outline>
</glyph>
<glyph name="haabkhasian-cy.sc" format="1">
  <advance width="1365"/>
  <outline>
    <contour>
      <point x="699" y="1208" type="curve"/>
      <point x="713" y="1300" type="line"/>
      <point x="686" y="1304"/>
      <point x="636" y="1308"/>
      <point x="605" y="1308" type="curve" smooth="yes"/>
      <point x="326" y="1308"/>
      <point x="60" y="1076"/>
      <point x="60" y="634" type="curve" smooth="yes"/>
      <point x="60" y="264"/>
      <point x="243" y="-20"/>
      <point x="607" y="-20" type="curve" smooth="yes"/>
      <point x="693" y="-20"/>
      <point x="780" y="2"/>
      <point x="850" y="48" type="curve"/>
      <point x="923" y="10"/>
      <point x="1014" y="-20"/>
      <point x="1122" y="-20" type="curve" smooth="yes"/>
      <point x="1205" y="-20"/>
      <point x="1282" y="2"/>
      <point x="1344" y="50" type="curve"/>
      <point x="1310" y="110" type="line"/>
      <point x="1267" y="78"/>
      <point x="1206" y="68"/>
      <point x="1150" y="68" type="curve" smooth="yes"/>
      <point x="1081" y="68"/>
      <point x="1013" y="84"/>
      <point x="966" y="112" type="curve"/>
      <point x="1062" y="174"/>
      <point x="1221" y="348"/>
      <point x="1221" y="602" type="curve" smooth="yes"/>
      <point x="1221" y="958"/>
      <point x="1047" y="1054"/>
      <point x="874" y="1054" type="curve" smooth="yes"/>
      <point x="701" y="1054"/>
      <point x="528" y="938"/>
      <point x="528" y="582" type="curve" smooth="yes"/>
      <point x="528" y="370"/>
      <point x="645" y="164"/>
      <point x="770" y="96" type="curve"/>
      <point x="701" y="68"/>
      <point x="660" y="68"/>
      <point x="628" y="68" type="curve" smooth="yes"/>
      <point x="424" y="68"/>
      <point x="237" y="254"/>
      <point x="237" y="636" type="curve" smooth="yes"/>
      <point x="237" y="1064"/>
      <point x="413" y="1220"/>
      <point x="606" y="1220" type="curve" smooth="yes"/>
      <point x="636" y="1220"/>
      <point x="670" y="1216"/>
    </contour>
    <contour>
      <point x="873" y="978" type="curve" smooth="yes"/>
      <point x="998" y="978"/>
      <point x="1051" y="846"/>
      <point x="1051" y="600" type="curve" smooth="yes"/>
      <point x="1051" y="374"/>
      <point x="980" y="220"/>
      <point x="887" y="156" type="curve"/>
      <point x="781" y="236"/>
      <point x="693" y="404"/>
      <point x="693" y="588" type="curve" smooth="yes"/>
      <point x="693" y="850"/>
      <point x="761" y="978"/>
    </contour>
  </outline>
</glyph>
<glyph name="hahook-cy.sc" format="1">
  <advance width="1161"/>
  <outline>
    <contour>
      <point x="670" y="688" type="curve"/>
      <point x="996" y="1190" type="line"/>
      <point x="1125" y="1210" type="line"/>
      <point x="1125" y="1292" type="line"/>
      <point x="731" y="1292" type="line"/>
      <point x="731" y="1210" type="line"/>
      <point x="875" y="1192" type="line"/>
      <point x="620" y="750" type="line"/>
      <point x="358" y="1190" type="line"/>
      <point x="516" y="1210" type="line"/>
      <point x="516" y="1292" type="line"/>
      <point x="41" y="1292" type="line"/>
      <point x="41" y="1210" type="line"/>
      <point x="161" y="1190" type="line"/>
      <point x="505" y="662" type="line"/>
      <point x="154" y="96" type="line"/>
      <point x="15" y="80" type="line"/>
      <point x="15" y="0" type="line"/>
      <point x="446" y="0" type="line"/>
      <point x="446" y="80" type="line"/>
      <point x="283" y="96" type="line"/>
      <point x="558" y="598" type="line"/>
      <point x="805" y="210"/>
      <point x="870" y="74"/>
      <point x="870" y="-38" type="curve" smooth="yes"/>
      <point x="870" y="-134"/>
      <point x="829" y="-204"/>
      <point x="694" y="-254" type="curve"/>
      <point x="737" y="-344" type="line"/>
      <point x="959" y="-268"/>
      <point x="1026" y="-122"/>
      <point x="1026" y="12" type="curve" smooth="yes"/>
      <point x="1026" y="178"/>
      <point x="885" y="368"/>
    </contour>
  </outline>
</glyph>
<glyph name="hastroke-cy.sc" format="1">
  <advance width="1161"/>
  <outline>
    <contour>
      <point x="942" y="706" type="line"/>
      <point x="238" y="706" type="line"/>
      <point x="238" y="616" type="line"/>
      <point x="942" y="616" type="line"/>
    </contour>
    <contour>
      <point x="154" y="96" type="line"/>
      <point x="14" y="80" type="line"/>
      <point x="14" y="0" type="line"/>
      <point x="445" y="0" type="line"/>
      <point x="445" y="80" type="line"/>
      <point x="282" y="96" type="line"/>
      <point x="552" y="586" type="line"/>
      <point x="832" y="98" type="line"/>
      <point x="680" y="80" type="line"/>
      <point x="680" y="0" type="line"/>
      <point x="1153" y="0" type="line"/>
      <point x="1153" y="80" type="line"/>
      <point x="1029" y="98" type="line"/>
      <point x="665" y="674" type="line"/>
      <point x="996" y="1190" type="line"/>
      <point x="1125" y="1210" type="line"/>
      <point x="1125" y="1292" type="line"/>
      <point x="730" y="1292" type="line"/>
      <point x="730" y="1210" type="line"/>
      <point x="874" y="1192" type="line"/>
      <point x="616" y="736" type="line"/>
      <point x="357" y="1190" type="line"/>
      <point x="516" y="1210" type="line"/>
      <point x="516" y="1292" type="line"/>
      <point x="40" y="1292" type="line"/>
      <point x="40" y="1210" type="line"/>
      <point x="161" y="1190" type="line"/>
      <point x="500" y="650" type="line"/>
    </contour>
  </outline>
</glyph>
<glyph name="i-cy.sc" format="1">
  <advance width="653"/>
  <outline>
    <contour>
      <point x="244" y="98" type="line"/>
      <point x="92" y="80" type="line"/>
      <point x="92" y="0" type="line"/>
      <point x="561" y="0" type="line"/>
      <point x="561" y="80" type="line"/>
      <point x="407" y="96" type="line"/>
      <point x="407" y="1192" type="line"/>
      <point x="561" y="1210" type="line"/>
      <point x="561" y="1292" type="line"/>
      <point x="92" y="1292" type="line"/>
      <point x="92" y="1210" type="line"/>
      <point x="244" y="1192" type="line"/>
    </contour>
    <contour>
      <point x="327" y="0" type="move" name="bottom"/>
    </contour>
    <contour>
      <point x="335" y="-144" type="move" name="mark0"/>
    </contour>
    <contour>
      <point x="505" y="18" type="move" name="ogonek"/>
    </contour>
    <contour>
      <point x="327" y="1272" type="move" name="top"/>
    </contour>
    <contour>
      <point x="34" y="1292" type="move" name="topleft"/>
    </contour>
  </outline>
</glyph>
<glyph name="ia-cy.sc" format="1">
  <advance width="1143"/>
  <outline>
    <contour>
      <point x="762" y="568" type="curve"/>
      <point x="762" y="96" type="line"/>
      <point x="605" y="80" type="line"/>
      <point x="605" y="0" type="line"/>
      <point x="1075" y="0" type="line"/>
      <point x="1075" y="80" type="line"/>
      <point x="923" y="96" type="line"/>
      <point x="923" y="1192" type="line"/>
      <point x="1063" y="1210" type="line"/>
      <point x="1063" y="1292" type="line"/>
      <point x="829" y="1292" type="line" smooth="yes"/>
      <point x="745" y="1292"/>
      <point x="680" y="1306"/>
      <point x="594" y="1306" type="curve" smooth="yes"/>
      <point x="342" y="1306"/>
      <point x="147" y="1244"/>
      <point x="147" y="936" type="curve" smooth="yes"/>
      <point x="147" y="752"/>
      <point x="241" y="628"/>
      <point x="382" y="586" type="curve"/>
      <point x="255" y="508"/>
      <point x="139" y="116"/>
      <point x="59" y="98" type="curve"/>
      <point x="-4" y="80" type="line"/>
      <point x="-4" y="0" type="line"/>
      <point x="206" y="0" type="line" smooth="yes"/>
      <point x="286" y="0"/>
      <point x="403" y="478"/>
      <point x="520" y="568" type="curve"/>
      <point x="606" y="568"/>
      <point x="686" y="568"/>
    </contour>
    <contour>
      <point x="762" y="1204" type="curve"/>
      <point x="762" y="664" type="line"/>
      <point x="733" y="660"/>
      <point x="669" y="658"/>
      <point x="583" y="658" type="curve" smooth="yes"/>
      <point x="413" y="658"/>
      <point x="315" y="762"/>
      <point x="315" y="952" type="curve" smooth="yes"/>
      <point x="315" y="1162"/>
      <point x="425" y="1216"/>
      <point x="583" y="1216" type="curve" smooth="yes"/>
      <point x="680" y="1216"/>
      <point x="714" y="1206"/>
    </contour>
  </outline>
</glyph>
<glyph name="ie-cy.sc" format="1">
  <advance width="1050"/>
  <outline>
    <contour>
      <point x="204" y="96" type="line"/>
      <point x="67" y="80" type="line"/>
      <point x="67" y="0" type="line"/>
      <point x="963" y="0" type="line"/>
      <point x="1010" y="300" type="line"/>
      <point x="920" y="328" type="line"/>
      <point x="835" y="108" type="line"/>
      <point x="366" y="94" type="line"/>
      <point x="366" y="620" type="line"/>
      <point x="645" y="614" type="line"/>
      <point x="666" y="466" type="line"/>
      <point x="753" y="466" type="line"/>
      <point x="753" y="858" type="line"/>
      <point x="666" y="858" type="line"/>
      <point x="645" y="714" type="line"/>
      <point x="366" y="710" type="line"/>
      <point x="366" y="1208" type="line"/>
      <point x="778" y="1198" type="line"/>
      <point x="823" y="1030" type="line"/>
      <point x="912" y="1030" type="line"/>
      <point x="889" y="1292" type="line"/>
      <point x="70" y="1292" type="line"/>
      <point x="70" y="1210" type="line"/>
      <point x="204" y="1192" type="line"/>
    </contour>
    <contour>
      <point x="532" y="0" type="move" name="bottom"/>
    </contour>
    <contour>
      <point x="558" y="-144" type="move" name="mark0"/>
    </contour>
    <contour>
      <point x="953" y="18" type="move" name="ogonek"/>
    </contour>
    <contour>
      <point x="532" y="1272" type="move" name="top"/>
    </contour>
    <contour>
      <point x="35" y="1292" type="move" name="topleft"/>
    </contour>
  </outline>
</glyph>
<glyph name="iegrave-cy.sc" format="1">
  <advance width="1050"/>
  <outline>
    <contour>
      <point x="580" y="1480" type="curve"/>
      <point x="582" y="1480" type="line"/>
      <point x="638" y="1534" type="line"/>
      <point x="370" y="1918" type="line"/>
      <point x="256" y="1810" type="line"/>
      <point x="300" y="1732"/>
      <point x="515" y="1510"/>
    </contour>
    <contour>
      <point x="204" y="96" type="line"/>
      <point x="67" y="80" type="line"/>
      <point x="67" y="0" type="line"/>
      <point x="963" y="0" type="line"/>
      <point x="1010" y="300" type="line"/>
      <point x="920" y="328" type="line"/>
      <point x="835" y="108" type="line"/>
      <point x="366" y="94" type="line"/>
      <point x="366" y="620" type="line"/>
      <point x="645" y="614" type="line"/>
      <point x="666" y="466" type="line"/>
      <point x="753" y="466" type="line"/>
      <point x="753" y="858" type="line"/>
      <point x="666" y="858" type="line"/>
      <point x="645" y="714" type="line"/>
      <point x="366" y="710" type="line"/>
      <point x="366" y="1208" type="line"/>
      <point x="778" y="1198" type="line"/>
      <point x="823" y="1030" type="line"/>
      <point x="912" y="1030" type="line"/>
      <point x="889" y="1292" type="line"/>
      <point x="70" y="1292" type="line"/>
      <point x="70" y="1210" type="line"/>
      <point x="204" y="1192" type="line"/>
    </contour>
  </outline>
</glyph>
<glyph name="iishort-cy.loclBGR.sc" format="1">
  <advance width="1374"/>
  <outline>
    <contour>
      <point x="501" y="1856" type="curve" smooth="yes"/>
      <point x="388" y="1856" type="line"/>
      <point x="388" y="1844"/>
      <point x="386" y="1832"/>
      <point x="386" y="1822" type="curve" smooth="yes"/>
      <point x="386" y="1616"/>
      <point x="501" y="1464"/>
      <point x="704" y="1464" type="curve" smooth="yes"/>
      <point x="911" y="1464"/>
      <point x="1018" y="1614"/>
      <point x="1018" y="1822" type="curve" smooth="yes"/>
      <point x="1018" y="1832"/>
      <point x="1017" y="1844"/>
      <point x="1017" y="1856" type="curve"/>
      <point x="904" y="1856" type="line" smooth="yes"/>
      <point x="881" y="1856"/>
      <point x="878" y="1822"/>
      <point x="878" y="1788" type="curve" smooth="yes"/>
      <point x="878" y="1682"/>
      <point x="837" y="1560"/>
      <point x="706" y="1560" type="curve" smooth="yes"/>
      <point x="571" y="1560"/>
      <point x="527" y="1682"/>
      <point x="527" y="1788" type="curve" smooth="yes"/>
      <point x="527" y="1822"/>
      <point x="523" y="1856"/>
    </contour>
    <contour>
      <point x="92" y="1292" type="line"/>
      <point x="92" y="1210" type="line"/>
      <point x="221" y="1192" type="line"/>
      <point x="221" y="96" type="line"/>
      <point x="86" y="80" type="line"/>
      <point x="86" y="0" type="line"/>
      <point x="532" y="0" type="line"/>
      <point x="532" y="80" type="line"/>
      <point x="380" y="98" type="line"/>
      <point x="380" y="162" type="line"/>
      <point x="870" y="802" type="line"/>
      <point x="994" y="1002" type="line"/>
      <point x="994" y="98" type="line"/>
      <point x="851" y="80" type="line"/>
      <point x="851" y="0" type="line"/>
      <point x="1292" y="0" type="line"/>
      <point x="1292" y="80" type="line"/>
      <point x="1154" y="98" type="line"/>
      <point x="1154" y="1192" type="line"/>
      <point x="1284" y="1210" type="line"/>
      <point x="1284" y="1292" type="line"/>
      <point x="851" y="1292" type="line"/>
      <point x="851" y="1210" type="line"/>
      <point x="994" y="1192" type="line"/>
      <point x="994" y="1142" type="line"/>
      <point x="519" y="512" type="line"/>
      <point x="380" y="300" type="line"/>
      <point x="380" y="1192" type="line"/>
      <point x="539" y="1212" type="line"/>
      <point x="539" y="1292" type="line"/>
    </contour>
  </outline>
</glyph>
<glyph name="io-cy.sc" format="1">
  <advance width="1050"/>
  <outline>
    <contour>
      <point x="709" y="1486" type="curve"/>
      <point x="786" y="1486"/>
      <point x="820" y="1546"/>
      <point x="820" y="1616" type="curve" smooth="yes"/>
      <point x="820" y="1674"/>
      <point x="787" y="1732"/>
      <point x="725" y="1732" type="curve" smooth="yes"/>
      <point x="654" y="1732"/>
      <point x="619" y="1666"/>
      <point x="619" y="1600" type="curve" smooth="yes"/>
      <point x="619" y="1536"/>
      <point x="654" y="1486"/>
    </contour>
    <contour>
      <point x="335" y="1486" type="curve" smooth="yes"/>
      <point x="410" y="1486"/>
      <point x="445" y="1546"/>
      <point x="445" y="1616" type="curve" smooth="yes"/>
      <point x="445" y="1674"/>
      <point x="412" y="1732"/>
      <point x="349" y="1732" type="curve"/>
      <point x="277" y="1732"/>
      <point x="243" y="1666"/>
      <point x="243" y="1600" type="curve" smooth="yes"/>
      <point x="243" y="1536"/>
      <point x="277" y="1486"/>
    </contour>
    <contour>
      <point x="204" y="96" type="line"/>
      <point x="67" y="80" type="line"/>
      <point x="67" y="0" type="line"/>
      <point x="963" y="0" type="line"/>
      <point x="1010" y="300" type="line"/>
      <point x="920" y="328" type="line"/>
      <point x="835" y="108" type="line"/>
      <point x="366" y="94" type="line"/>
      <point x="366" y="620" type="line"/>
      <point x="645" y="614" type="line"/>
      <point x="666" y="466" type="line"/>
      <point x="753" y="466" type="line"/>
      <point x="753" y="858" type="line"/>
      <point x="666" y="858" type="line"/>
      <point x="645" y="714" type="line"/>
      <point x="366" y="710" type="line"/>
      <point x="366" y="1208" type="line"/>
      <point x="778" y="1198" type="line"/>
      <point x="823" y="1030" type="line"/>
      <point x="912" y="1030" type="line"/>
      <point x="889" y="1292" type="line"/>
      <point x="70" y="1292" type="line"/>
      <point x="70" y="1210" type="line"/>
      <point x="204" y="1192" type="line"/>
    </contour>
  </outline>
</glyph>
<glyph name="komidzje-cy.sc" format="1">
  <advance width="1078"/>
  <outline>
    <contour>
      <point x="416" y="712" type="curve" smooth="yes"/>
      <point x="321" y="712" type="line"/>
      <point x="321" y="620" type="line"/>
      <point x="434" y="620" type="line" smooth="yes"/>
      <point x="643" y="620"/>
      <point x="727" y="500"/>
      <point x="727" y="338" type="curve" smooth="yes"/>
      <point x="727" y="238"/>
      <point x="678" y="106"/>
      <point x="579" y="106" type="curve"/>
      <point x="579" y="0" type="line"/>
      <point x="895" y="0" type="line"/>
      <point x="896" y="-4"/>
      <point x="905" y="-214"/>
      <point x="907" y="-320" type="curve"/>
      <point x="1008" y="-320" type="line"/>
      <point x="1042" y="-8"/>
      <point x="1040" y="-52"/>
      <point x="1057" y="108" type="curve"/>
      <point x="829" y="108" type="line"/>
      <point x="865" y="132"/>
      <point x="918" y="228"/>
      <point x="918" y="332" type="curve" smooth="yes"/>
      <point x="918" y="518"/>
      <point x="784" y="682"/>
      <point x="579" y="682" type="curve"/>
      <point x="714" y="710"/>
      <point x="844" y="814"/>
      <point x="844" y="1014" type="curve" smooth="yes"/>
      <point x="844" y="1214"/>
      <point x="703" y="1306"/>
      <point x="442" y="1306" type="curve" smooth="yes"/>
      <point x="321" y="1306"/>
      <point x="186" y="1256"/>
      <point x="119" y="1250" type="curve"/>
      <point x="136" y="988" type="line"/>
      <point x="234" y="988" type="line"/>
      <point x="262" y="1146" type="line"/>
      <point x="287" y="1188"/>
      <point x="357" y="1216"/>
      <point x="453" y="1216" type="curve" smooth="yes"/>
      <point x="590" y="1216"/>
      <point x="671" y="1154"/>
      <point x="673" y="992" type="curve"/>
      <point x="673" y="802"/>
      <point x="544" y="712"/>
    </contour>
  </outline>
</glyph>
<glyph name="komitje-cy.sc" format="1">
  <advance width="1335"/>
  <outline>
    <contour>
      <point x="660" y="322" type="curve" smooth="yes"/>
      <point x="660" y="1206" type="line"/>
      <point x="958" y="1198" type="line"/>
      <point x="1005" y="882" type="line"/>
      <point x="1107" y="882" type="line"/>
      <point x="1087" y="1292" type="line"/>
      <point x="80" y="1292" type="line"/>
      <point x="54" y="882" type="line"/>
      <point x="153" y="882" type="line"/>
      <point x="207" y="1198" type="line"/>
      <point x="496" y="1206" type="line"/>
      <point x="496" y="298" type="line" smooth="yes"/>
      <point x="496" y="102"/>
      <point x="603" y="-14"/>
      <point x="828" y="-14" type="curve" smooth="yes"/>
      <point x="1050" y="-14"/>
      <point x="1187" y="98"/>
      <point x="1187" y="290" type="curve" smooth="yes"/>
      <point x="1187" y="602" type="line"/>
      <point x="1303" y="622" type="line"/>
      <point x="1303" y="712" type="line"/>
      <point x="896" y="712" type="line"/>
      <point x="896" y="622" type="line"/>
      <point x="1025" y="602" type="line"/>
      <point x="1025" y="318" type="line" smooth="yes"/>
      <point x="1025" y="160"/>
      <point x="977" y="78"/>
      <point x="832" y="78" type="curve" smooth="yes"/>
      <point x="697" y="78"/>
      <point x="660" y="158"/>
    </contour>
    <contour>
      <point x="607" y="-144" type="move" name="mark0"/>
    </contour>
  </outline>
</glyph>
<glyph name="komizje-cy.sc" format="1">
  <advance width="1572"/>
  <outline>
    <contour>
      <point x="1422" y="290" type="curve" smooth="yes"/>
      <point x="1422" y="602" type="line"/>
      <point x="1540" y="622" type="line"/>
      <point x="1540" y="710" type="line"/>
      <point x="1134" y="710" type="line"/>
      <point x="1134" y="622" type="line"/>
      <point x="1261" y="602" type="line"/>
      <point x="1261" y="318" type="line" smooth="yes"/>
      <point x="1261" y="160"/>
      <point x="1214" y="78"/>
      <point x="1068" y="78" type="curve" smooth="yes"/>
      <point x="950" y="78"/>
      <point x="894" y="136"/>
      <point x="894" y="322" type="curve" smooth="yes"/>
      <point x="894" y="534"/>
      <point x="785" y="682"/>
      <point x="578" y="682" type="curve"/>
      <point x="710" y="708"/>
      <point x="844" y="810"/>
      <point x="844" y="1014" type="curve" smooth="yes"/>
      <point x="844" y="1214"/>
      <point x="703" y="1306"/>
      <point x="442" y="1306" type="curve" smooth="yes"/>
      <point x="321" y="1306"/>
      <point x="186" y="1256"/>
      <point x="119" y="1250" type="curve"/>
      <point x="136" y="988" type="line"/>
      <point x="234" y="988" type="line"/>
      <point x="262" y="1146" type="line"/>
      <point x="287" y="1188"/>
      <point x="357" y="1216"/>
      <point x="453" y="1216" type="curve" smooth="yes"/>
      <point x="590" y="1216"/>
      <point x="671" y="1154"/>
      <point x="673" y="992" type="curve"/>
      <point x="673" y="802"/>
      <point x="544" y="712"/>
      <point x="418" y="712" type="curve" smooth="yes"/>
      <point x="321" y="712" type="line"/>
      <point x="321" y="620" type="line"/>
      <point x="436" y="620" type="line" smooth="yes"/>
      <point x="655" y="620"/>
      <point x="727" y="484"/>
      <point x="727" y="298" type="curve" smooth="yes"/>
      <point x="727" y="102"/>
      <point x="839" y="-14"/>
      <point x="1063" y="-14" type="curve" smooth="yes"/>
      <point x="1288" y="-14"/>
      <point x="1422" y="98"/>
    </contour>
  </outline>
</glyph>
<glyph name="obarred-cy.sc" format="1">
  <advance width="1158"/>
  <outline>
    <contour>
      <point x="593" y="1308" type="curve" smooth="yes"/>
      <point x="285" y="1308"/>
      <point x="49" y="1048"/>
      <point x="49" y="638" type="curve" smooth="yes"/>
      <point x="49" y="248"/>
      <point x="228" y="-26"/>
      <point x="568" y="-20" type="curve" smooth="yes"/>
      <point x="874" y="-14"/>
      <point x="1108" y="252"/>
      <point x="1108" y="660" type="curve" smooth="yes"/>
      <point x="1108" y="1050"/>
      <point x="933" y="1308"/>
    </contour>
    <contour>
      <point x="229" y="606" type="curve"/>
      <point x="926" y="606" type="line"/>
      <point x="913" y="250"/>
      <point x="774" y="68"/>
      <point x="576" y="68" type="curve" smooth="yes"/>
      <point x="362" y="68"/>
      <point x="237" y="284"/>
    </contour>
    <contour>
      <point x="926" y="694" type="curve"/>
      <point x="229" y="694" type="line"/>
      <point x="241" y="1038"/>
      <point x="375" y="1220"/>
      <point x="581" y="1220" type="curve" smooth="yes"/>
      <point x="794" y="1220"/>
      <point x="916" y="1014"/>
    </contour>
    <contour>
      <point x="571" y="-144" type="move" name="mark0"/>
    </contour>
    <contour>
      <point x="595" y="1272" type="move" name="top"/>
    </contour>
  </outline>
</glyph>
<glyph name="pe-cy.sc" format="1">
  <advance width="1294"/>
  <outline>
    <contour>
      <point x="82" y="1292" type="line"/>
      <point x="82" y="1212" type="line"/>
      <point x="221" y="1192" type="line"/>
      <point x="221" y="96" type="line"/>
      <point x="90" y="80" type="line"/>
      <point x="90" y="0" type="line"/>
      <point x="535" y="0" type="line"/>
      <point x="535" y="80" type="line"/>
      <point x="383" y="96" type="line"/>
      <point x="383" y="1194" type="line"/>
      <point x="913" y="1194" type="line"/>
      <point x="913" y="98" type="line"/>
      <point x="777" y="80" type="line"/>
      <point x="777" y="0" type="line"/>
      <point x="1227" y="0" type="line"/>
      <point x="1227" y="80" type="line"/>
      <point x="1075" y="98" type="line"/>
      <point x="1075" y="1192" type="line"/>
      <point x="1214" y="1212" type="line"/>
      <point x="1214" y="1292" type="line"/>
    </contour>
    <contour>
      <point x="906" y="0" type="move" name="bottomright"/>
    </contour>
  </outline>
</glyph>
<glyph name="schwa-cy.sc" format="1">
  <advance width="1080"/>
  <outline>
    <contour>
      <point x="495" y="-20" type="curve" smooth="yes"/>
      <point x="797" y="-20"/>
      <point x="1024" y="250"/>
      <point x="1024" y="654" type="curve" smooth="yes"/>
      <point x="1024" y="1048"/>
      <point x="829" y="1306"/>
      <point x="532" y="1306" type="curve" smooth="yes"/>
      <point x="307" y="1306"/>
      <point x="207" y="1244"/>
      <point x="117" y="1238" type="curve"/>
      <point x="109" y="984" type="line"/>
      <point x="215" y="984" type="line"/>
      <point x="244" y="1120" type="line"/>
      <point x="289" y="1164"/>
      <point x="355" y="1216"/>
      <point x="507" y="1216" type="curve" smooth="yes"/>
      <point x="707" y="1216"/>
      <point x="844" y="1010"/>
      <point x="857" y="670" type="curve"/>
      <point x="86" y="670" type="line"/>
      <point x="77" y="628"/>
      <point x="76" y="566"/>
      <point x="76" y="492" type="curve"/>
      <point x="84" y="162"/>
      <point x="252" y="-20"/>
    </contour>
    <contour>
      <point x="530" y="82" type="curve" smooth="yes"/>
      <point x="326" y="82"/>
      <point x="243" y="296"/>
      <point x="243" y="480" type="curve" smooth="yes"/>
      <point x="243" y="516"/>
      <point x="244" y="548"/>
      <point x="249" y="576" type="curve"/>
      <point x="858" y="576" type="line"/>
      <point x="850" y="226"/>
      <point x="713" y="82"/>
    </contour>
    <contour>
      <point x="533" y="1272" type="move" name="top"/>
    </contour>
  </outline>
</glyph>
<glyph name="shha-cy.sc" format="1">
  <advance width="1114"/>
  <outline>
    <contour>
      <point x="374" y="718" type="curve"/>
      <point x="374" y="1194" type="line"/>
      <point x="543" y="1212" type="line"/>
      <point x="543" y="1292" type="line"/>
      <point x="68" y="1292" type="line"/>
      <point x="68" y="1212" type="line"/>
      <point x="213" y="1194" type="line"/>
      <point x="213" y="102" type="line"/>
      <point x="69" y="82" type="line"/>
      <point x="69" y="0" type="line"/>
      <point x="519" y="0" type="line"/>
      <point x="519" y="82" type="line"/>
      <point x="374" y="100" type="line"/>
      <point x="374" y="626" type="line"/>
      <point x="418" y="654"/>
      <point x="534" y="680"/>
      <point x="616" y="680" type="curve" smooth="yes"/>
      <point x="819" y="680"/>
      <point x="842" y="626"/>
      <point x="842" y="344" type="curve" smooth="yes"/>
      <point x="842" y="102" type="line"/>
      <point x="702" y="82" type="line"/>
      <point x="702" y="0" type="line"/>
      <point x="1104" y="0" type="line"/>
      <point x="1104" y="82" type="line"/>
      <point x="1004" y="102" type="line"/>
      <point x="1004" y="396" type="line" smooth="yes"/>
      <point x="1004" y="656"/>
      <point x="939" y="792"/>
      <point x="691" y="792" type="curve" smooth="yes"/>
      <point x="591" y="792"/>
      <point x="454" y="766"/>
    </contour>
    <contour>
      <point x="597" y="-168" type="move" name="bottom"/>
    </contour>
    <contour>
      <point x="553" y="476" type="move" name="center"/>
    </contour>
    <contour>
      <point x="28" y="1124" type="move" name="topleft"/>
    </contour>
  </outline>
</glyph>
<glyph name="te-cy.loclBGR.sc" format="1">
  <advance width="1142"/>
  <outline>
    <contour>
      <point x="490" y="98" type="line"/>
      <point x="280" y="80" type="line"/>
      <point x="280" y="0" type="line"/>
      <point x="889" y="0" type="line"/>
      <point x="889" y="80" type="line"/>
      <point x="658" y="98" type="line"/>
      <point x="658" y="1206" type="line"/>
      <point x="949" y="1196" type="line"/>
      <point x="998" y="838" type="line"/>
      <point x="1096" y="838" type="line"/>
      <point x="1077" y="1292" type="line"/>
      <point x="73" y="1292" type="line"/>
      <point x="46" y="838" type="line"/>
      <point x="149" y="838" type="line"/>
      <point x="204" y="1196" type="line"/>
      <point x="490" y="1206" type="line"/>
    </contour>
  </outline>
</glyph>
<glyph name="te-cy.sc" format="1">
  <advance width="1123"/>
  <outline>
    <contour>
      <point x="476" y="98" type="line"/>
      <point x="265" y="80" type="line"/>
      <point x="265" y="0" type="line"/>
      <point x="874" y="0" type="line"/>
      <point x="874" y="80" type="line"/>
      <point x="644" y="98" type="line"/>
      <point x="644" y="1206" type="line"/>
      <point x="934" y="1196" type="line"/>
      <point x="983" y="838" type="line"/>
      <point x="1082" y="838" type="line"/>
      <point x="1063" y="1292" type="line"/>
      <point x="58" y="1292" type="line"/>
      <point x="32" y="838" type="line"/>
      <point x="134" y="838" type="line"/>
      <point x="189" y="1196" type="line"/>
      <point x="476" y="1206" type="line"/>
    </contour>
    <contour>
      <point x="562" y="0" type="move" name="bottom"/>
    </contour>
    <contour>
      <point x="562" y="648" type="move" name="center"/>
    </contour>
    <contour>
      <point x="574" y="-144" type="move" name="mark0"/>
    </contour>
    <contour>
      <point x="562" y="1272" type="move" name="top"/>
    </contour>
  </outline>
</glyph>
<glyph name="tshe-cy.sc" format="1">
  <advance width="1412"/>
  <outline>
    <contour>
      <point x="667" y="660" type="curve"/>
      <point x="667" y="1206" type="line"/>
      <point x="997" y="1192" type="line"/>
      <point x="1034" y="884" type="line"/>
      <point x="1133" y="884" type="line"/>
      <point x="1129" y="1292" type="line"/>
      <point x="82" y="1292" type="line"/>
      <point x="62" y="884" type="line"/>
      <point x="163" y="884" type="line"/>
      <point x="210" y="1192" type="line"/>
      <point x="504" y="1206" type="line"/>
      <point x="504" y="98" type="line"/>
      <point x="289" y="80" type="line"/>
      <point x="289" y="0" type="line"/>
      <point x="827" y="0" type="line"/>
      <point x="827" y="80" type="line"/>
      <point x="667" y="98" type="line"/>
      <point x="667" y="570" type="line"/>
      <point x="713" y="602"/>
      <point x="798" y="634"/>
      <point x="919" y="634" type="curve" smooth="yes"/>
      <point x="1101" y="634"/>
      <point x="1125" y="492"/>
      <point x="1125" y="304" type="curve" smooth="yes"/>
      <point x="1125" y="96" type="line"/>
      <point x="1004" y="80" type="line"/>
      <point x="1004" y="0" type="line"/>
      <point x="1411" y="0" type="line"/>
      <point x="1411" y="80" type="line"/>
      <point x="1285" y="96" type="line"/>
      <point x="1285" y="358" type="line" smooth="yes"/>
      <point x="1285" y="616"/>
      <point x="1213" y="742"/>
      <point x="953" y="742" type="curve" smooth="yes"/>
      <point x="867" y="742"/>
      <point x="735" y="706"/>
    </contour>
    <contour>
      <point x="562" y="-144" type="move" name="mark0"/>
    </contour>
  </outline>
</glyph>
<glyph name="udieresis-cy.sc" format="1">
  <advance width="1086"/>
  <outline>
    <contour>
      <point x="722" y="1486" type="curve"/>
      <point x="799" y="1486"/>
      <point x="833" y="1546"/>
      <point x="833" y="1616" type="curve" smooth="yes"/>
      <point x="833" y="1674"/>
      <point x="800" y="1732"/>
      <point x="738" y="1732" type="curve" smooth="yes"/>
      <point x="667" y="1732"/>
      <point x="632" y="1666"/>
      <point x="632" y="1600" type="curve" smooth="yes"/>
      <point x="632" y="1536"/>
      <point x="667" y="1486"/>
    </contour>
    <contour>
      <point x="348" y="1486" type="curve" smooth="yes"/>
      <point x="423" y="1486"/>
      <point x="457" y="1546"/>
      <point x="457" y="1616" type="curve" smooth="yes"/>
      <point x="457" y="1674"/>
      <point x="425" y="1732"/>
      <point x="362" y="1732" type="curve"/>
      <point x="290" y="1732"/>
      <point x="256" y="1666"/>
      <point x="256" y="1600" type="curve" smooth="yes"/>
      <point x="256" y="1536"/>
      <point x="290" y="1486"/>
    </contour>
    <contour>
      <point x="640" y="266" type="curve"/>
      <point x="986" y="1192" type="line"/>
      <point x="1069" y="1210" type="line"/>
      <point x="1069" y="1292" type="line"/>
      <point x="724" y="1292" type="line"/>
      <point x="724" y="1210" type="line"/>
      <point x="866" y="1192" type="line"/>
      <point x="655" y="574" type="line"/>
      <point x="601" y="410" type="line"/>
      <point x="550" y="572" type="line"/>
      <point x="282" y="1192" type="line"/>
      <point x="444" y="1210" type="line"/>
      <point x="444" y="1292" type="line"/>
      <point x="17" y="1292" type="line"/>
      <point x="17" y="1210" type="line"/>
      <point x="105" y="1192" type="line"/>
      <point x="517" y="280" type="line"/>
      <point x="481" y="166"/>
      <point x="442" y="124"/>
      <point x="343" y="124" type="curve" smooth="yes"/>
      <point x="325" y="124"/>
      <point x="238" y="126"/>
      <point x="229" y="128" type="curve"/>
      <point x="229" y="10" type="line"/>
      <point x="262" y="-6"/>
      <point x="315" y="-20"/>
      <point x="373" y="-20" type="curve" smooth="yes"/>
      <point x="545" y="-20"/>
      <point x="596" y="162"/>
    </contour>
  </outline>
</glyph>
<glyph name="uhungarumlaut-cy.sc" format="1">
  <advance width="1086"/>
  <outline>
    <contour>
      <point x="354" y="1470" type="line"/>
      <point x="429" y="1530"/>
      <point x="611" y="1712"/>
      <point x="664" y="1812" type="curve"/>
      <point x="560" y="1908" type="line"/>
      <point x="293" y="1520" type="line"/>
    </contour>
    <contour>
      <point x="710" y="1470" type="line"/>
      <point x="788" y="1530"/>
      <point x="981" y="1720"/>
      <point x="1028" y="1812" type="curve"/>
      <point x="931" y="1906" type="line"/>
      <point x="650" y="1524" type="line"/>
    </contour>
    <contour>
      <point x="640" y="266" type="curve"/>
      <point x="986" y="1192" type="line"/>
      <point x="1069" y="1210" type="line"/>
      <point x="1069" y="1292" type="line"/>
      <point x="724" y="1292" type="line"/>
      <point x="724" y="1210" type="line"/>
      <point x="866" y="1192" type="line"/>
      <point x="655" y="574" type="line"/>
      <point x="601" y="410" type="line"/>
      <point x="550" y="572" type="line"/>
      <point x="282" y="1192" type="line"/>
      <point x="444" y="1210" type="line"/>
      <point x="444" y="1292" type="line"/>
      <point x="17" y="1292" type="line"/>
      <point x="17" y="1210" type="line"/>
      <point x="105" y="1192" type="line"/>
      <point x="517" y="280" type="line"/>
      <point x="481" y="166"/>
      <point x="442" y="124"/>
      <point x="343" y="124" type="curve" smooth="yes"/>
      <point x="325" y="124"/>
      <point x="238" y="126"/>
      <point x="229" y="128" type="curve"/>
      <point x="229" y="10" type="line"/>
      <point x="262" y="-6"/>
      <point x="315" y="-20"/>
      <point x="373" y="-20" type="curve" smooth="yes"/>
      <point x="545" y="-20"/>
      <point x="596" y="162"/>
    </contour>
  </outline>
</glyph>
<glyph name="ushort-cy.sc" format="1">
  <advance width="1086"/>
  <outline>
    <contour>
      <point x="343" y="1856" type="curve" smooth="yes"/>
      <point x="230" y="1856" type="line"/>
      <point x="230" y="1844"/>
      <point x="228" y="1832"/>
      <point x="228" y="1822" type="curve" smooth="yes"/>
      <point x="228" y="1616"/>
      <point x="342" y="1464"/>
      <point x="546" y="1464" type="curve" smooth="yes"/>
      <point x="753" y="1464"/>
      <point x="860" y="1614"/>
      <point x="860" y="1822" type="curve" smooth="yes"/>
      <point x="860" y="1832"/>
      <point x="859" y="1844"/>
      <point x="859" y="1856" type="curve"/>
      <point x="746" y="1856" type="line" smooth="yes"/>
      <point x="723" y="1856"/>
      <point x="720" y="1822"/>
      <point x="720" y="1788" type="curve" smooth="yes"/>
      <point x="720" y="1682"/>
      <point x="679" y="1560"/>
      <point x="547" y="1560" type="curve" smooth="yes"/>
      <point x="413" y="1560"/>
      <point x="369" y="1682"/>
      <point x="369" y="1788" type="curve" smooth="yes"/>
      <point x="369" y="1822"/>
      <point x="365" y="1856"/>
    </contour>
    <contour>
      <point x="640" y="266" type="curve"/>
      <point x="986" y="1192" type="line"/>
      <point x="1069" y="1210" type="line"/>
      <point x="1069" y="1292" type="line"/>
      <point x="724" y="1292" type="line"/>
      <point x="724" y="1210" type="line"/>
      <point x="866" y="1192" type="line"/>
      <point x="655" y="574" type="line"/>
      <point x="601" y="410" type="line"/>
      <point x="550" y="572" type="line"/>
      <point x="282" y="1192" type="line"/>
      <point x="444" y="1210" type="line"/>
      <point x="444" y="1292" type="line"/>
      <point x="17" y="1292" type="line"/>
      <point x="17" y="1210" type="line"/>
      <point x="105" y="1192" type="line"/>
      <point x="517" y="280" type="line"/>
      <point x="481" y="166"/>
      <point x="442" y="124"/>
      <point x="343" y="124" type="curve" smooth="yes"/>
      <point x="325" y="124"/>
      <point x="238" y="126"/>
      <point x="229" y="128" type="curve"/>
      <point x="229" y="10" type="line"/>
      <point x="262" y="-6"/>
      <point x="315" y="-20"/>
      <point x="373" y="-20" type="curve" smooth="yes"/>
      <point x="545" y="-20"/>
      <point x="596" y="162"/>
    </contour>
  </outline>
</glyph>
<glyph name="ve-cy.sc" format="1">
  <advance width="1086"/>
  <outline>
    <contour>
      <point x="203" y="98" type="line"/>
      <point x="67" y="80" type="line"/>
      <point x="67" y="0" type="line"/>
      <point x="279" y="0" type="line" smooth="yes"/>
      <point x="400" y="0"/>
      <point x="453" y="-10"/>
      <point x="540" y="-10" type="curve" smooth="yes"/>
      <point x="920" y="-10"/>
      <point x="1030" y="180"/>
      <point x="1030" y="388" type="curve" smooth="yes"/>
      <point x="1030" y="574"/>
      <point x="906" y="696"/>
      <point x="704" y="690" type="curve"/>
      <point x="864" y="722"/>
      <point x="945" y="856"/>
      <point x="945" y="1014" type="curve" smooth="yes"/>
      <point x="945" y="1196"/>
      <point x="843" y="1306"/>
      <point x="539" y="1306" type="curve" smooth="yes"/>
      <point x="458" y="1306"/>
      <point x="381" y="1292"/>
      <point x="283" y="1292" type="curve" smooth="yes"/>
      <point x="70" y="1292" type="line"/>
      <point x="70" y="1210" type="line"/>
      <point x="203" y="1192" type="line"/>
    </contour>
    <contour>
      <point x="365" y="720" type="curve"/>
      <point x="365" y="1210" type="line"/>
      <point x="395" y="1212"/>
      <point x="454" y="1222"/>
      <point x="522" y="1222" type="curve" smooth="yes"/>
      <point x="721" y="1222"/>
      <point x="787" y="1140"/>
      <point x="787" y="982" type="curve" smooth="yes"/>
      <point x="787" y="814"/>
      <point x="707" y="720"/>
      <point x="550" y="720" type="curve" smooth="yes"/>
      <point x="513" y="720"/>
      <point x="410" y="718"/>
    </contour>
    <contour>
      <point x="365" y="92" type="curve"/>
      <point x="365" y="620" type="line"/>
      <point x="409" y="624"/>
      <point x="529" y="622"/>
      <point x="580" y="622" type="curve" smooth="yes"/>
      <point x="775" y="622"/>
      <point x="858" y="544"/>
      <point x="858" y="362" type="curve" smooth="yes"/>
      <point x="858" y="188"/>
      <point x="771" y="78"/>
      <point x="537" y="78" type="curve" smooth="yes"/>
      <point x="479" y="78"/>
      <point x="403" y="80"/>
    </contour>
    <contour>
      <point x="555" y="0" type="move" name="bottom"/>
    </contour>
    <contour>
      <point x="590" y="-144" type="move" name="mark0"/>
    </contour>
    <contour>
      <point x="555" y="1272" type="move" name="top"/>
    </contour>
  </outline>
</glyph>
<glyph name="yi-cy.sc" format="1">
  <advance width="652"/>
  <outline>
    <contour>
      <point x="505" y="1486" type="curve"/>
      <point x="582" y="1486"/>
      <point x="616" y="1546"/>
      <point x="616" y="1616" type="curve" smooth="yes"/>
      <point x="616" y="1674"/>
      <point x="583" y="1732"/>
      <point x="520" y="1732" type="curve" smooth="yes"/>
      <point x="449" y="1732"/>
      <point x="414" y="1666"/>
      <point x="414" y="1600" type="curve" smooth="yes"/>
      <point x="414" y="1536"/>
      <point x="449" y="1486"/>
    </contour>
    <contour>
      <point x="130" y="1486" type="curve" smooth="yes"/>
      <point x="206" y="1486"/>
      <point x="240" y="1546"/>
      <point x="240" y="1616" type="curve" smooth="yes"/>
      <point x="240" y="1674"/>
      <point x="207" y="1732"/>
      <point x="144" y="1732" type="curve"/>
      <point x="72" y="1732"/>
      <point x="38" y="1666"/>
      <point x="38" y="1600" type="curve" smooth="yes"/>
      <point x="38" y="1536"/>
      <point x="72" y="1486"/>
    </contour>
    <contour>
      <point x="244" y="98" type="line"/>
      <point x="92" y="80" type="line"/>
      <point x="92" y="0" type="line"/>
      <point x="560" y="0" type="line"/>
      <point x="560" y="80" type="line"/>
      <point x="406" y="96" type="line"/>
      <point x="406" y="1192" type="line"/>
      <point x="560" y="1210" type="line"/>
      <point x="560" y="1292" type="line"/>
      <point x="91" y="1292" type="line"/>
      <point x="91" y="1210" type="line"/>
      <point x="244" y="1192" type="line"/>
    </contour>
  </outline>
</glyph>
<glyph name="zedescender-cy.loclBSH.sc" format="1">
  <advance width="989"/>
  <outline>
    <contour>
      <point x="268" y="130" type="curve"/>
      <point x="223" y="350" type="line"/>
      <point x="147" y="350" type="line"/>
      <point x="119" y="56" type="line"/>
      <point x="176" y="34"/>
      <point x="290" y="-6"/>
      <point x="443" y="-10" type="curve"/>
      <point x="472" y="-50"/>
      <point x="496" y="-118"/>
      <point x="496" y="-202" type="curve"/>
      <point x="415" y="-348" type="line"/>
      <point x="416" y="-406"/>
      <point x="455" y="-442"/>
      <point x="510" y="-442" type="curve" smooth="yes"/>
      <point x="578" y="-442"/>
      <point x="626" y="-362"/>
      <point x="626" y="-260" type="curve" smooth="yes"/>
      <point x="626" y="-180"/>
      <point x="589" y="-78"/>
      <point x="540" y="-6" type="curve"/>
      <point x="797" y="16"/>
      <point x="903" y="162"/>
      <point x="903" y="378" type="curve" smooth="yes"/>
      <point x="903" y="546"/>
      <point x="797" y="676"/>
      <point x="589" y="682" type="curve"/>
      <point x="729" y="712"/>
      <point x="866" y="818"/>
      <point x="866" y="1014" type="curve" smooth="yes"/>
      <point x="866" y="1214"/>
      <point x="713" y="1306"/>
      <point x="449" y="1306" type="curve" smooth="yes"/>
      <point x="328" y="1306"/>
      <point x="194" y="1256"/>
      <point x="126" y="1250" type="curve"/>
      <point x="142" y="988" type="line"/>
      <point x="240" y="988" type="line"/>
      <point x="269" y="1146" type="line"/>
      <point x="293" y="1188"/>
      <point x="366" y="1216"/>
      <point x="460" y="1216" type="curve" smooth="yes"/>
      <point x="598" y="1216"/>
      <point x="694" y="1154"/>
      <point x="694" y="992" type="curve" smooth="yes"/>
      <point x="694" y="802"/>
      <point x="555" y="712"/>
      <point x="423" y="712" type="curve" smooth="yes"/>
      <point x="330" y="712" type="line"/>
      <point x="330" y="620" type="line"/>
      <point x="443" y="620" type="line" smooth="yes"/>
      <point x="663" y="620"/>
      <point x="716" y="486"/>
      <point x="716" y="364" type="curve" smooth="yes"/>
      <point x="716" y="174"/>
      <point x="641" y="84"/>
      <point x="494" y="84" type="curve" smooth="yes"/>
      <point x="388" y="84"/>
      <point x="311" y="104"/>
    </contour>
  </outline>
</glyph>
<glyph name="zhedescender-cy.sc" format="1">
  <advance width="1698"/>
  <outline>
    <contour>
      <point x="1172" y="670" type="curve"/>
      <point x="1527" y="1192" type="line"/>
      <point x="1655" y="1210" type="line"/>
      <point x="1655" y="1292" type="line"/>
      <point x="1266" y="1292" type="line"/>
      <point x="1266" y="1210" type="line"/>
      <point x="1394" y="1190" type="line"/>
      <point x="1068" y="680" type="line"/>
      <point x="924" y="680" type="line"/>
      <point x="924" y="1192" type="line"/>
      <point x="1063" y="1210" type="line"/>
      <point x="1063" y="1292" type="line"/>
      <point x="634" y="1292" type="line"/>
      <point x="634" y="1210" type="line"/>
      <point x="770" y="1192" type="line"/>
      <point x="770" y="680" type="line"/>
      <point x="625" y="680" type="line"/>
      <point x="296" y="1192" type="line"/>
      <point x="426" y="1210" type="line"/>
      <point x="426" y="1292" type="line"/>
      <point x="38" y="1292" type="line"/>
      <point x="38" y="1210" type="line"/>
      <point x="164" y="1192" type="line"/>
      <point x="520" y="672" type="line"/>
      <point x="355" y="600"/>
      <point x="166" y="124"/>
      <point x="79" y="98" type="curve" smooth="yes"/>
      <point x="16" y="80" type="line"/>
      <point x="16" y="0" type="line"/>
      <point x="207" y="0" type="line" smooth="yes"/>
      <point x="324" y="0"/>
      <point x="523" y="600"/>
      <point x="661" y="600" type="curve" smooth="yes"/>
      <point x="770" y="600" type="line"/>
      <point x="770" y="98" type="line"/>
      <point x="632" y="80" type="line"/>
      <point x="632" y="0" type="line"/>
      <point x="1066" y="0" type="line"/>
      <point x="1066" y="80" type="line"/>
      <point x="924" y="98" type="line"/>
      <point x="924" y="600" type="line"/>
      <point x="1031" y="600" type="line" smooth="yes"/>
      <point x="1170" y="600"/>
      <point x="1370" y="0"/>
      <point x="1484" y="0" type="curve" smooth="yes"/>
      <point x="1549" y="0" type="line"/>
      <point x="1558" y="-24"/>
      <point x="1569" y="-284"/>
      <point x="1569" y="-320" type="curve"/>
      <point x="1669" y="-320" type="line"/>
      <point x="1673" y="-308"/>
      <point x="1711" y="82"/>
      <point x="1711" y="98" type="curve"/>
      <point x="1611" y="98" type="line"/>
      <point x="1523" y="132"/>
      <point x="1337" y="598"/>
    </contour>
  </outline>
</glyph>
